<?xml version="1.0" standalone="no"?><svg xmlns="http://www.w3.org/2000/svg" viewBox="0 0 1440 320"><path fill="#f3f4f5" fill-opacity="1" d="M0,128L40,133.3C80,139,160,149,240,181.3C320,213,400,267,480,256C560,245,640,171,720,149.3C800,128,880,160,960,154.7C1040,149,1120,107,1200,80C1280,53,1360,43,1400,37.3L1440,32L1440,320L1400,320C1360,320,1280,320,1200,320C1120,320,1040,320,960,320C880,320,800,320,720,320C640,320,560,320,480,320C400,320,320,320,240,320C160,320,80,320,40,320L0,320Z"></path></svg>